# xmcd CD database file
#
# Track frame offsets:
#	150
#	5937
#	22706
#	45234
#	66696
#	96304
#	116497
#	135788
#	156558
#	191941
#	231670
#
# Disc length: 3521 seconds
#
# Revision: 0
# Processed by: cddbd v1.5.2PL0 Copyright (c) Steve Scherf et al.
# Submitted via: CDex 1.70beta2
#
DISCID=990dbf0b
DTITLE=Grace Note - Unity
DYEAR=2007
DGENRE=Jazz
TTITLE0=Intro - Unity
TTITLE1=How Great Is Our God
TTITLE2=Here I Am To Worship
TTITLE3=My Redeemer Lives
TTITLE4=Go Tell It On The Mountain
TTITLE5=Majesty (Here I Am)
TTITLE6=Open The Eyes Of My Heart
TTITLE7=Yo Danzo Como David (David Danced)
TTITLE8=Power Of Your Love
TTITLE9=Everlasting God
TTITLE10=Holy
EXTD=YEAR: 2007
EXTT0=
EXTT1=
EXTT2=
EXTT3=
EXTT4=
EXTT5=
EXTT6=
EXTT7=
EXTT8=
EXTT9=
EXTT10=
PLAYORDER=
